Coordinates
version=1
nRows=24
nColumns=24
inDegrees=yes

Units are S.I. units (second, meters, Newtons, ...)
Angles are in degrees.

endheader
time	pelvis_tilt	pelvis_list	pelvis_rotation	pelvis_tx	pelvis_ty	pelvis_tz	hip_flexion_r	hip_adduction_r	hip_rotation_r	knee_angle_r	ankle_angle_r	subtalar_angle_r	mtp_angle_r	hip_flexion_l	hip_adduction_l	hip_rotation_l	knee_angle_l	ankle_angle_l	subtalar_angle_l	mtp_angle_l	lumbar_extension	lumbar_bending	lumbar_rotation
      5.86500000	     14.48291900	     -1.50337104	     10.08495320	      2.47150439	      0.75754941	     -0.26006557	     -7.61986461	      7.45042161	     -4.40768296	    -15.64060063	     26.22314062	      7.33566119	      0.00000000	     10.80615903	      0.81449820	      7.90188778	    -70.42647965	     17.83081111	     -3.58484439	      0.00000000	    -32.76161123	      3.14764498	      4.04318991
      5.87000000	     14.59265242	     -1.50479934	      9.76824054	      2.47848130	      0.75781347	     -0.25990943	     -8.58892348	      7.49864240	     -4.25164004	    -15.12688403	     26.56083696	      7.78194502	      0.00000000	     11.43450371	      0.81997765	      7.37624058	    -69.63819630	     18.41325717	     -3.34436279	      0.00000000	    -32.87843305	      3.02424638	      4.62683058
      5.87500000	     14.71665712	     -1.50197363	      9.44995818	      2.48544372	      0.75801952	     -0.25976943	     -9.57967407	      7.53014501	     -4.12897502	    -14.60048162	     26.89926226	      8.26774882	      0.00000000	     12.01698073	      0.81906583	      6.85127830	    -68.76311434	     18.92464272	     -3.09311914	      0.00000000	    -33.02032627	      2.90068669	      5.19485369
      5.88000000	     14.89657441	     -1.45616931	      9.15636505	      2.49243551	      0.75823342	     -0.25970692	    -10.65577109	      7.50796688	     -4.09490314	    -14.04876950	     27.26091516	      8.84844681	      0.00000000	     12.48126656	      0.85771804	      6.35245036	    -67.76392896	     19.34506619	     -2.88451188	      0.00000000	    -33.22130016	      2.76748892	      5.69838417
      5.88500000	     14.97955278	     -1.51803955	      8.83548655	      2.49937798	      0.75822548	     -0.25960274	    -11.58765338	      7.57526565	     -3.98836812	    -13.53100054	     27.55942485	      9.32767326	      0.00000000	     13.06440837	      0.77314699	      5.83267056	    -66.73425185	     19.75851686	     -2.65557147	      0.00000000	    -33.31408809	      2.71305455	      6.29172056
      5.89000000	     15.13665473	     -1.50537267	      8.52674536	      2.50632669	      0.75825263	     -0.25955339	    -12.63055163	      7.56156210	     -3.92712109	    -12.98205117	     27.91188570	      9.88402329	      0.00000000	     13.49949213	      0.76779882	      5.35023970	    -65.57576459	     20.06554915	     -2.44370687	      0.00000000	    -33.50208085	      2.60460934	      6.83825783
      5.89500000	     15.24905367	     -1.55445186	      8.22480715	      2.51327118	      0.75813941	     -0.25949700	    -13.61095776	      7.60004876	     -3.88116822	    -12.43939663	     28.18330224	     10.39977120	      0.00000000	     13.97073862	      0.67846544	      4.84436881	    -64.35223988	     20.36857650	     -2.31739790	      0.00000000	    -33.63377169	      2.55825107	      7.35850390
      5.90000000	     15.44298723	     -1.51314640	      7.96597978	      2.52021364	      0.75806350	     -0.25952960	    -14.71344548	      7.54910317	     -3.92232345	    -11.85932241	     28.54685488	     11.01629010	      0.00000000	     14.28460919	      0.70531167	      4.42407264	    -63.00092910	     20.55092415	     -2.23063267	      0.00000000	    -33.87373937	      2.45729372	      7.79573235
      5.90500000	     15.52652368	     -1.59562572	      7.67757413	      2.52712876	      0.75777286	     -0.25951158	    -15.65392292	      7.60400253	     -3.88486269	    -11.32351626	     28.77949612	     11.49604734	      0.00000000	     14.72270090	      0.58284896	      3.96222089	    -61.61034727	     20.75506446	     -2.17793852	      0.00000000	    -33.98412628	      2.45153817	      8.32528490
      5.91000000	     15.64383362	     -1.63473798	      7.40672243	      2.53403914	      0.75746753	     -0.25951588	    -16.64487874	      7.61612749	     -3.85866017	    -10.77440884	     29.03235704	     11.98842693	      0.00000000	     15.06426836	      0.50816226	      3.53193170	    -60.10042026	     20.91134819	     -2.16398832	      0.00000000	    -34.14439221	      2.41108107	      8.79050011
      5.91500000	     15.80068748	     -1.63196537	      7.19830434	      2.54093703	      0.75713402	     -0.25959921	    -17.69428056	      7.59864747	     -3.89671435	    -10.20479591	     29.34953458	     12.52820777	      0.00000000	     15.31464820	      0.49879474	      3.19247690	    -58.48869187	     20.98701102	     -2.18471822	      0.00000000	    -34.35728953	      2.36827341	      9.16944778
      5.92000000	     15.90227029	     -1.66932946	      6.99684798	      2.54783525	      0.75667574	     -0.25966828	    -18.66660287	      7.61613999	     -3.96638695	     -9.65652440	     29.58126368	     13.01226045	      0.00000000	     15.59332796	      0.44016711	      2.84598567	    -56.79618665	     21.08742576	     -2.24766082	      0.00000000	    -34.50743848	      2.36027563	      9.53184816
      5.92500000	     15.94042170	     -1.77614802	      6.78097381	      2.55468777	      0.75608936	     -0.25971774	    -19.53919166	      7.69198608	     -3.95002045	     -9.14929344	     29.73897234	     13.40166051	      0.00000000	     15.91820393	      0.31009934	      2.51489285	    -55.03740441	     21.16534364	     -2.29945913	      0.00000000	    -34.59590987	      2.40326358	      9.97574413
      5.93000000	     16.01236595	     -1.83169818	      6.59374542	      2.56155394	      0.75549152	     -0.25979248	    -20.46101039	      7.72525246	     -3.96597587	     -8.63427677	     29.93860117	     13.79720997	      0.00000000	     16.13795922	      0.23578820	      2.21261878	    -53.15754905	     21.23473282	     -2.33191308	      0.00000000	    -34.72864185	      2.41141671	     10.33548575
      5.93500000	     16.06018159	     -1.90545692	      6.44119040	      2.56840077	      0.75481008	     -0.25988629	    -21.34400710	      7.78406256	     -4.00796959	     -8.13714721	     30.11761265	     14.18088024	      0.00000000	     16.34463053	      0.15367533	      1.96251513	    -51.19507781	     21.29621084	     -2.34364181	      0.00000000	    -34.84070199	      2.45005942	     10.65725957
      5.94000000	     16.09233327	     -1.98397343	      6.30530929	      2.57524068	      0.75406330	     -0.25998492	    -22.19683494	      7.85029018	     -4.06167566	     -7.66681783	     30.29376317	     14.55213708	      0.00000000	     16.51831957	      0.06960284	      1.73748695	    -49.14214560	     21.35776832	     -2.30174943	      0.00000000	    -34.94089428	      2.49614524	     10.95749524
      5.94500000	     16.11080727	     -2.06969514	      6.20250758	      2.58207352	      0.75324677	     -0.26011248	    -23.02347792	      7.93233696	     -4.12233747	     -7.21856615	     30.48458479	     14.92670457	      0.00000000	     16.65898018	     -0.00971278	      1.56156061	    -47.00652711	     21.42749456	     -2.20216502	      0.00000000	    -35.02939166	      2.56655678	     11.20650934
      5.95000000	     16.07168568	     -2.18319926	      6.08729438	      2.58891115	      0.75234865	     -0.26020770	    -23.75893888	      8.03189551	     -4.19076623	     -6.82447623	     30.59648659	     15.23692582	      0.00000000	     16.81170137	     -0.12472633	      1.36714325	    -44.79214567	     21.50651474	     -2.00844131	      0.00000000	    -35.05633213	      2.64373445	     11.49742129
      5.95500000	     16.04045848	     -2.29479220	      5.98880399	      2.59575440	      0.75141558	     -0.26030963	    -24.49154331	      8.13427017	     -4.25656265	     -6.45816537	     30.73727030	     15.56373121	      0.00000000	     16.89713199	     -0.23215843	      1.20705918	    -42.49688537	     21.60329651	     -1.71540940	      0.00000000	    -35.09569409	      2.72419351	     11.74948051
      5.96000000	     15.98155554	     -2.41834410	      5.89552147	      2.60260975	      0.75042437	     -0.26041001	    -25.17107407	      8.24501239	     -4.33069276	     -6.14028617	     30.86365427	     15.88357978	      0.00000000	     16.95948818	     -0.34977156	      1.05395460	    -40.13782973	     21.70309630	     -1.31962292	      0.00000000	    -35.10448716	      2.81461510	     11.99169552
      5.96500000	     15.92089075	     -2.54744988	      5.80193246	      2.60948684	      0.74940070	     -0.26051356	    -25.82667740	      8.35511094	     -4.40758987	     -5.87366820	     30.99868603	     16.22689721	      0.00000000	     16.96546755	     -0.47190585	      0.90771922	    -37.72137989	     21.81974389	     -0.81119819	      0.00000000	    -35.11110562	      2.90892333	     12.22428236
      5.97000000	     15.84162834	     -2.68047197	      5.70113710	      2.61640072	      0.74833897	     -0.26061866	    -26.43887091	      8.45788171	     -4.48728410	     -5.66249770	     31.12640785	     16.57885556	      0.00000000	     16.93498135	     -0.59728317	      0.75377833	    -35.26366761	     21.93860899	     -0.18893003	      0.00000000	    -35.09305241	      3.00144303	     12.45726600
      5.97500000	     15.75931020	     -2.81707005	      5.58440620	      2.62335571	      0.74725695	     -0.26070648	    -27.02126509	      8.55023490	     -4.56784818	     -5.51513296	     31.26149331	     16.95461660	      0.00000000	     16.85328559	     -0.73024656	      0.58550306	    -32.78348705	     22.05672996	      0.55193413	      0.00000000	    -35.06809381	      3.08455747	     12.69303525
      5.98000000	     15.67089286	     -2.95306438	      5.45092755	      2.63036023	      0.74615591	     -0.26079928	    -27.56845437	      8.62369091	     -4.64094347	     -5.43804967	     31.40245404	     17.35439577	      0.00000000	     16.72754647	     -0.86196105	      0.40256099	    -30.30382855	     22.16564279	      1.39624046	      0.00000000	    -35.03055004	      3.15797136	     12.93402528
